<svg width="40" height="40" viewBox="0 0 40 40" fill="none" xmlns="http://www.w3.org/2000/svg">
<path d="M25.9688 5H32.1193V23.892C32.1193 26.0133 31.6127 27.8693 30.5994 29.4602C29.5956 31.0511 28.1894 32.2917 26.3807 33.1818C24.572 34.0625 22.465 34.5028 20.0597 34.5028C17.6449 34.5028 15.5331 34.0625 13.7244 33.1818C11.9157 32.2917 10.5095 31.0511 9.50568 29.4602C8.50189 27.8693 8 26.0133 8 23.892V5H14.1506V23.3665C14.1506 24.4744 14.392 25.4593 14.875 26.321C15.3674 27.1828 16.0587 27.8598 16.9489 28.3523C17.839 28.8447 18.8759 29.0909 20.0597 29.0909C21.2528 29.0909 22.2898 28.8447 23.1705 28.3523C24.0606 27.8598 24.7472 27.1828 25.2301 26.321C25.7225 25.4593 25.9688 24.4744 25.9688 23.3665V5Z" fill="#6CC97F"/>
</svg>
